<?xml version="1.0" encoding="UTF-8" standalone="no"?>
<!-- Created with Inkscape (http://www.inkscape.org/) -->

<svg
   xmlns:dc="http://purl.org/dc/elements/1.1/"
   xmlns:cc="http://creativecommons.org/ns#"
   xmlns:rdf="http://www.w3.org/1999/02/22-rdf-syntax-ns#"
   xmlns:svg="http://www.w3.org/2000/svg"
   xmlns="http://www.w3.org/2000/svg"
   xmlns:sodipodi="http://sodipodi.sourceforge.net/DTD/sodipodi-0.dtd"
   xmlns:inkscape="http://www.inkscape.org/namespaces/inkscape"
   version="1.1"
   id="svg4518"
   width="5760"
   height="3240"
   viewBox="0 0 5760 3240"
   sodipodi:docname="3DEXPERIENCE_work_as_designed_wallpaper.svg"
   inkscape:version="0.92.4 (5da689c313, 2019-01-14)"
   inkscape:export-filename="C:\Users\Paul\Téléchargements\image.png"
   inkscape:export-xdpi="128"
   inkscape:export-ydpi="128">
  <metadata
     id="metadata4524">
    <rdf:RDF>
      <cc:Work
         rdf:about="">
        <dc:format>image/svg+xml</dc:format>
        <dc:type
           rdf:resource="http://purl.org/dc/dcmitype/StillImage" />
        <dc:title></dc:title>
      </cc:Work>
    </rdf:RDF>
  </metadata>
  <defs
     id="defs4522" />
  <sodipodi:namedview
     pagecolor="#ffffff"
     bordercolor="#666666"
     borderopacity="1"
     objecttolerance="10"
     gridtolerance="10"
     guidetolerance="10"
     inkscape:pageopacity="0"
     inkscape:pageshadow="2"
     inkscape:window-width="1920"
     inkscape:window-height="1017"
     id="namedview4520"
     showgrid="true"
     inkscape:zoom="0.17390562"
     inkscape:cx="2724.0525"
     inkscape:cy="1579.4918"
     inkscape:window-x="-8"
     inkscape:window-y="-8"
     inkscape:window-maximized="1"
     inkscape:current-layer="layer1"
     showborder="true"
     borderlayer="false"
     inkscape:pagecheckerboard="false"
     inkscape:snap-page="true">
    <inkscape:grid
       type="xygrid"
       id="grid4751" />
  </sodipodi:namedview>
  <g
     inkscape:groupmode="layer"
     id="layer1"
     inkscape:label="3DX"
     transform="translate(0,-208)">
    <rect
       style="opacity:1;fill:#025384;fill-opacity:1;stroke:#025384;stroke-width:10.33504486;stroke-linecap:round;stroke-linejoin:round;stroke-miterlimit:4;stroke-dasharray:none;stroke-dashoffset:0;stroke-opacity:1"
       id="rect874"
       width="5760"
       height="3240"
       x="0"
       y="208" />
    <path
       id="path4544"
       d="m 2199.2792,1514.6338 c 53.8594,0 97.5,-43.6406 97.5,-97.5 0,-53.8594 -43.6406,-97.5 -97.5,-97.5 -53.8594,0 -97.5,43.6406 -97.5,97.5 0,53.8594 43.6406,97.5 97.5,97.5 z m -10.4063,-149.3437 v -7.875 c 0,-4.3125 3.4688,-7.7813 7.7813,-7.7813 h 5.2031 c 4.3125,0 7.7813,3.4688 7.7813,7.7813 v 7.9687 c 7.2656,0.375 14.2968,2.8594 20.1562,7.2188 2.625,1.9218 2.9063,5.7656 0.5625,8.0156 l -7.6406,7.2656 c -1.7813,1.7344 -4.4531,1.7813 -6.5625,0.4688 -2.5313,-1.5938 -5.3438,-2.3907 -8.3438,-2.3907 h -18.2343 c -4.2188,0 -7.6407,3.8438 -7.6407,8.5782 0,3.8437 2.3438,7.2656 5.6719,8.25 l 29.2031,8.7656 c 12.0469,3.6094 20.4844,15.1875 20.4844,28.1719 0,15.9375 -12.375,28.8281 -27.7031,29.25 v 7.875 c 0,4.3125 -3.4688,7.7812 -7.7813,7.7812 h -5.2031 c -4.3125,0 -7.7812,-3.4687 -7.7812,-7.7812 v -7.9688 c -7.2657,-0.375 -14.2969,-2.8594 -20.1563,-7.2187 -2.625,-1.9219 -2.9062,-5.7657 -0.5625,-8.0157 l 7.6406,-7.2656 c 1.7813,-1.7344 4.4532,-1.7812 6.5625,-0.4687 2.5313,1.5937 5.3438,2.3906 8.3438,2.3906 h 18.2344 c 4.2187,0 7.6406,-3.8438 7.6406,-8.5781 0,-3.8438 -2.3438,-7.2657 -5.6719,-8.25 l -29.2031,-8.7657 c -12.0469,-3.6093 -20.4844,-15.1875 -20.4844,-28.1718 0.047,-15.9375 12.375,-28.8282 27.7031,-29.25 z m 115.4063,119.3437 h -15.2344 c -9.1875,12.1875 -20.9062,22.3594 -34.2187,30 h 29.9062 c 2.4844,0 4.5,1.6875 4.5,3.75 v 7.5 c 0,2.0625 -2.0156,3.75 -4.5,3.75 h -170.9531 c -2.4844,0 -4.5,-1.6875 -4.5,-3.75 v -7.5 c 0,-2.0625 2.0156,-3.75 4.5,-3.75 h 29.9062 c -13.3125,-7.6406 -24.9843,-17.8125 -34.2187,-30 h -15.1875 c -8.2969,0 -15,6.7031 -15,15 v 45 c 0,8.2969 6.7031,15 15,15 h 210 c 8.2969,0 15,-6.7031 15,-15 v -45 c 0,-8.2969 -6.7031,-15 -15,-15 z"
       inkscape:connector-curvature="0"
       style="fill:#ffffff;stroke-width:0.46875"
       inkscape:export-xdpi="263.56653"
       inkscape:export-ydpi="263.56653"
       inkscape:export-filename="C:\Users\Paul\Téléchargements\text4880.png" />
    <path
       id="path4555"
       d="m 3939.2877,1348.7746 -1.2855,-1.3391 c -24.6394,-25.1751 -63.2055,-27.6926 -90.8445,-7.9275 l 18.3725,55.3851 -51.4214,34.2809 25.7107,68.5619 -77.1321,-77.1321 51.4214,-34.2809 -15.3193,-46.3328 c -27.6926,-20.2472 -66.6336,-17.8904 -91.4337,7.4989 l -1.2855,1.2856 c -26.0857,26.6748 -27.2105,69.151 -3.9102,97.5935 l 113.6092,117.0908 c 3.803,3.9101 9.9629,3.9101 13.7659,0 l 113.6627,-117.1444 c 23.3003,-28.3889 22.1755,-70.8651 -3.9102,-97.5399 z"
       inkscape:connector-curvature="0"
       style="fill:#ffffff;stroke-width:0.53563952"
       inkscape:export-xdpi="263.56653"
       inkscape:export-ydpi="263.56653"
       inkscape:export-filename="C:\Users\Paul\Téléchargements\text4880.png" />
    <path
       id="path4566"
       d="m 2886.006,1479.1337 h -27.0468 l 8.1093,-30.4219 c 0.9375,-3.5625 -1.7344,-7.0781 -5.4375,-7.0781 h -31.875 c -2.8125,0 -5.2031,2.1093 -5.5781,4.875 l -7.5,56.25 c -0.4688,3.375 2.1562,6.375 5.5781,6.375 h 27.7969 l -10.7813,45.5625 c -0.8438,3.5625 1.875,6.9375 5.4844,6.9375 1.9688,0 3.8437,-1.0312 4.875,-2.8125 l 41.25,-71.25 c 2.1563,-3.75 -0.5625,-8.4375 -4.875,-8.4375 z m 31.125,-52.1719 c 2.7656,-4.5 4.5,-9.6563 4.5,-15.3281 0,-16.5469 -13.4531,-30 -30,-30 h -2.7657 c 1.6875,-4.7344 2.7657,-9.7032 2.7657,-15 0,-24.8438 -20.1563,-45 -45,-45 -2.4375,0 -4.7813,0.3281 -7.0782,0.7031 4.4063,6.1407 7.0782,13.6406 7.0782,21.7969 0,20.7187 -16.7812,37.5 -37.5,37.5 h -7.5 c -16.5469,0 -30,13.4531 -30,30 0,5.6718 1.7343,10.8281 4.5,15.3281 -19.2187,1.5469 -34.5,17.5782 -34.5,37.1719 0,20.625 16.875,37.5 37.5,37.5 h 22.6407 c 0.046,-0.2812 0,-0.5625 0,-0.8437 l 7.4999,-56.25 c 1.4063,-10.2188 10.1719,-17.9063 20.4844,-17.9063 h 31.875 c 6.4687,0 12.4219,2.9531 16.3594,8.0625 3.9375,5.1093 5.2499,11.625 3.5625,17.8594 l -3.0938,11.5781 h 7.5001 c 7.3593,0 14.203,3.9375 17.8593,10.3125 3.6562,6.375 3.6562,14.2969 0,20.625 l -3.7968,6.5625 h 14.0624 c 20.6251,0 37.5001,-16.875 37.5001,-37.5 0.047,-19.5937 -15.2344,-35.625 -34.4532,-37.1719 z"
       inkscape:connector-curvature="0"
       style="fill:#ffffff;stroke-width:0.46875"
       inkscape:export-xdpi="263.56653"
       inkscape:export-ydpi="263.56653"
       inkscape:export-filename="C:\Users\Paul\Téléchargements\text4880.png" />
    <path
       id="path4577"
       d="m 3527.9511,1383.7658 c 16.5703,0 30,-13.4297 30,-30 0,-16.5703 -13.4297,-30 -30,-30 -16.5703,0 -30,13.4297 -30,30 0,16.5703 13.4297,30 30,30 z m -14.3578,79.5703 c 6.5906,7.8375 18.2812,8.9485 26.2359,2.4469 l 41.25,-33.7594 c 8.011,-6.5531 9.1828,-18.3703 2.6344,-26.3812 -6.5484,-8.0203 -18.3703,-9.1828 -26.3953,-2.6344 l -26.925,22.0312 -18.2391,-21.7078 c -7.2375,-8.6203 -18.3844,-13.0875 -30,-11.8734 -11.339,1.1625 -21.2109,7.6266 -26.4234,17.3062 l -23.1422,43.1391 c -10.9688,20.4563 -4.0734,45.1734 16.0266,58.0078 l 21.0046,16.3547 h -42.9187 c -10.3547,0 -18.75,8.3953 -18.75,18.75 0,10.3547 8.3953,18.75 18.75,18.75 h 97.5 c 15.975,0 25.2047,-20.0578 13.2562,-32.0062 l -51.4968,-51.4969 16.3125,-30.4078 z"
       inkscape:connector-curvature="0"
       style="fill:#ffffff;stroke-width:0.46875"
       inkscape:export-xdpi="263.56653"
       inkscape:export-ydpi="263.56653"
       inkscape:export-filename="C:\Users\Paul\Téléchargements\text4880.png" />
    <path
       id="path4588"
       d="m 3272.9086,1505.6562 h -46.1663 a 61.885714,61.885714 0 0 1 1.1657,12 c 0,25.6682 -18.7885,44.5714 -49.2857,44.5714 -24.2753,0 -30.5368,-26.002 -40.5573,-42.2057 -4.1437,-6.6498 -9.1039,-12.4913 -13.8487,-17.8141 l -0.07,-0.078 -0.069,-0.079 c -8.2066,-9.3622 -12.4377,-12.6798 -16.1684,-12.6798 h -1.4352 c -3.0787,2.6528 -7.2514,4.2857 -11.85,4.2857 h -34.2862 c -9.4677,0 -17.1429,-6.9075 -17.1429,-15.4286 v -123.4286 c 0,-8.521 7.6752,-15.4285 17.1429,-15.4285 h 34.2857 c 4.5985,0 8.7712,1.6328 11.85,4.2857 h 1.4351 c 15.3686,0 35.9663,-21.4286 68.1429,-21.4286 h 11.4102 c 33.5046,0 52.9286,20.7096 53.5393,48.8277 6.6868,9.5427 9.9059,21.8491 8.5634,33.638 a 49.900714,49.900714 0 0 1 4.2476,11.82 h 19.0972 c 24.3402,0 44.5714,20.1343 44.5714,44.5714 0,24.1602 -20.4112,44.5715 -44.5714,44.5715 z m 0,-63.4286 h -48.7639 c 6.8769,-7.8584 7.7223,-22.942 -2.6518,-32.7054 6.0144,-10.5246 0.9037,-24.4414 -6.9241,-28.7276 3.495,-20.9615 -5.3979,-32.8527 -27.1072,-32.8527 h -11.4102 c -24.3701,0 -41.3625,19.2391 -64.2857,21.255 v 94.6891 c 13.5209,1.5878 23.0175,11.3689 31.6473,21.2121 6.0402,6.7768 11.6384,13.5536 16.4995,21.3616 7.7577,12.5293 13.9993,30.0536 18.7104,30.0536 12.5223,0 23.5714,-4.7143 23.5714,-18.8571 0,-18.8572 -14.1429,-28.4331 -14.1429,-37.7143 h 84.8572 c 9.8705,0 18.8571,-8.8393 18.8571,-18.8572 0,-10.1651 -8.6919,-18.8571 -18.8571,-18.8571 z m -182.5714,-68.5714 c 0,-7.1009 -5.7563,-12.8572 -12.8572,-12.8572 -7.1009,0 -12.8571,5.7563 -12.8571,12.8572 0,7.1009 5.7562,12.8571 12.8571,12.8571 7.1009,0 12.8572,-5.7562 12.8572,-12.8571 z"
       inkscape:connector-curvature="0"
       style="fill:#ffffff;stroke-width:0.53571427"
       inkscape:export-xdpi="263.56653"
       inkscape:export-ydpi="263.56653"
       inkscape:export-filename="C:\Users\Paul\Téléchargements\text4880.png" />
    <path
       id="path4616"
       d="m 2648.6223,1455.3199 c -0.224,8.1703 -7.1329,14.5781 -15.3061,14.5781 h -25.9382 v 7.5 c 0,10.2487 -2.2885,19.9612 -6.375,28.6617 l 28.2318,28.2318 c 5.8575,5.858 5.8575,15.3553 0,21.2133 -5.8584,5.8579 -15.3557,5.8575 -21.2137,0 l -25.6575,-25.6575 c -11.6015,9.4092 -26.3836,15.0506 -42.4856,15.0506 V 1430.523 c 0,-3.1064 -2.5186,-5.625 -5.625,-5.625 h -11.25 c -3.1064,0 -5.625,2.5186 -5.625,5.625 v 114.3749 c -16.102,0 -30.884,-5.6414 -42.4856,-15.0506 l -25.6574,25.6575 c -5.8585,5.8579 -15.3558,5.8575 -21.2138,0 -5.8575,-5.858 -5.8575,-15.3553 0,-21.2133 l 28.2319,-28.2318 c -4.0866,-8.7005 -6.375,-18.413 -6.375,-28.6617 v -7.5 h -25.9378 c -8.1731,0 -15.082,-6.4078 -15.3061,-14.5781 -0.233,-8.4769 6.5695,-15.4219 14.9939,-15.4219 h 26.25 v -27.5367 l -21.8569,-21.8569 c -5.8575,-5.8579 -5.8575,-15.3553 0,-21.2132 5.8585,-5.858 15.3553,-5.858 21.2138,0 l 25.6064,25.6068 h 107.5728 l 25.6064,-25.6064 c 5.8585,-5.8579 15.3553,-5.8579 21.2138,0 5.8575,5.858 5.8575,15.3553 0,21.2133 l -21.8564,21.8564 v 27.5367 h 26.25 c 8.4243,0 15.2268,6.945 14.9943,15.4219 z m -119.5255,-135.4218 c -28.995,0 -52.5,23.505 -52.5,52.4999 h 104.9999 c 0,-28.9949 -23.5049,-52.4999 -52.4999,-52.4999 z"
       inkscape:connector-curvature="0"
       style="fill:#ffffff;stroke-width:0.46874964"
       inkscape:export-xdpi="263.56653"
       inkscape:export-ydpi="263.56653"
       inkscape:export-filename="C:\Users\Paul\Téléchargements\text4880.png" />
    <g
       id="g4697"
       transform="matrix(-0.63764832,0,0,0.63764832,4361.4533,1279.9077)"
       style="fill:#ffffff"
       inkscape:export-xdpi="263.56653"
       inkscape:export-ydpi="263.56653"
       inkscape:export-filename="C:\Users\Paul\Téléchargements\text4880.png">
      <g
         id="g4631"
         style="fill:#ffffff">
        <g
           id="g4629"
           style="fill:#ffffff">
          <path
             id="path4627"
             d="m 452.646,346.484 c -11.754,15.657 -26.718,29.049 -44.023,39.27 -22.569,13.332 -47.585,20.348 -72.479,20.348 -0.693,0 -1.387,-0.006 -2.079,-0.017 -31.463,-0.494 -61.939,-12.639 -85.013,-32.466 H 144.098 c -6.135,0 -11.65,-3.735 -13.928,-9.432 l -3.571,-8.933 c -0.091,-0.227 -0.176,-0.455 -0.256,-0.686 -10.245,-29.762 -13.757,-62.302 -10.156,-94.101 2.304,-20.345 7.503,-40.103 15.293,-58.445 -6.631,-8.933 -15.26,-16.288 -25.211,-21.432 l 23.962,-94.075 c 2.045,-8.027 -2.806,-16.193 -10.834,-18.238 -8.027,-2.046 -16.193,2.807 -18.238,10.834 L 81.67,155.624 64.111,96.219 C 61.763,88.275 53.421,83.738 45.475,86.085 37.529,88.432 32.994,96.777 35.342,104.721 L 55.961,174.49 C 23.909,182.152 0,211.021 0,245.388 c 0,16.967 13.804,30.771 30.771,30.771 h 6.01 v 35.827 c 0,72.898 59.308,132.206 132.206,132.206 H 497 c 8.284,0 15,-6.716 15,-15 v -4.963 c 0,-37.092 -25.189,-68.393 -59.354,-77.745 z"
             inkscape:connector-curvature="0"
             style="fill:#ffffff" />
        </g>
      </g>
      <g
         id="g4637"
         style="fill:#ffffff">
        <g
           id="g4635"
           style="fill:#ffffff">
          <path
             id="path4633"
             d="m 439.385,194.893 c -23.043,-47.611 -75.109,-80.226 -129.561,-81.157 -53.065,-0.916 -106.796,28.125 -136.857,73.965 -29.038,44.284 -36.148,103.912 -18.66,155.918 h 69.313 c -1.684,-2.818 -3.246,-5.709 -4.677,-8.665 -10.299,-21.265 -13.636,-46.31 -9.396,-70.52 4.338,-24.774 16.38,-47.011 33.906,-62.613 18.795,-16.729 43.324,-25.944 67.248,-25.264 25.883,0.73 50.323,12.993 65.378,32.803 13.848,18.224 18.639,41.389 12.816,61.967 -6.463,22.84 -26.668,40.617 -49.135,43.231 -15.725,1.825 -30.49,-4.023 -38.518,-15.281 -6.884,-9.652 -7.565,-23.966 -1.62,-34.034 5.069,-8.585 14.087,-13.012 24.087,-11.854 8.229,0.955 14.126,8.4 13.172,16.629 -0.38,3.27 -1.784,6.172 -3.855,8.421 -2.34,2.541 -0.286,6.708 3.148,6.334 0.039,-0.004 0.079,-0.009 0.118,-0.013 10.56,-1.229 20.542,-10.313 23.735,-21.601 3.223,-11.388 0.221,-25.047 -7.835,-35.647 -9.471,-12.463 -25.694,-20.496 -42.338,-20.966 -0.55,-0.016 -1.101,-0.023 -1.651,-0.023 -15.861,0 -32.102,6.399 -44.804,17.707 -25.792,22.961 -33.297,64.941 -17.457,97.649 15.416,31.835 51.019,53.619 88.593,54.21 40.554,0.596 81.608,-23.48 102.241,-60.014 20.35,-36.031 21.35,-82.466 2.609,-121.182 z"
             inkscape:connector-curvature="0"
             style="fill:#ffffff" />
        </g>
      </g>
      <g
         id="g4639"
         style="fill:#ffffff" />
      <g
         id="g4641"
         style="fill:#ffffff" />
      <g
         id="g4643"
         style="fill:#ffffff" />
      <g
         id="g4645"
         style="fill:#ffffff" />
      <g
         id="g4647"
         style="fill:#ffffff" />
      <g
         id="g4649"
         style="fill:#ffffff" />
      <g
         id="g4651"
         style="fill:#ffffff" />
      <g
         id="g4653"
         style="fill:#ffffff" />
      <g
         id="g4655"
         style="fill:#ffffff" />
      <g
         id="g4657"
         style="fill:#ffffff" />
      <g
         id="g4659"
         style="fill:#ffffff" />
      <g
         id="g4661"
         style="fill:#ffffff" />
      <g
         id="g4663"
         style="fill:#ffffff" />
      <g
         id="g4665"
         style="fill:#ffffff" />
      <g
         id="g4667"
         style="fill:#ffffff" />
    </g>
    <path
       style="opacity:1;fill:#ffffff;fill-opacity:1;stroke:none;stroke-width:21.87143135;stroke-linecap:round;stroke-linejoin:round;stroke-miterlimit:4;stroke-dasharray:none;stroke-dashoffset:0;stroke-opacity:1"
       id="path4712"
       sodipodi:type="arc"
       sodipodi:cx="1527.6943"
       sodipodi:cy="1439.86"
       sodipodi:rx="120"
       sodipodi:ry="120"
       sodipodi:start="3.2046689"
       sodipodi:end="3.1749633"
       sodipodi:open="true"
       d="m 1407.933,1432.2959 a 120,120 0 0 1 126.4359,-112.2501 120,120 0 0 1 113.1859,125.5988 120,120 0 0 1 -124.7548,114.1155 120,120 0 0 1 -115.0389,-123.9038"
       inkscape:export-xdpi="263.56653"
       inkscape:export-ydpi="263.56653"
       inkscape:export-filename="C:\Users\Paul\Téléchargements\text4880.png" />
    <text
       xml:space="preserve"
       style="font-style:normal;font-weight:normal;font-size:400px;line-height:1.25;font-family:sans-serif;letter-spacing:-11.96999073px;word-spacing:0px;fill:#ffffff;fill-opacity:1;stroke:none"
       x="1312.3737"
       y="2206.4263"
       id="text4531"
       inkscape:export-xdpi="263.56653"
       inkscape:export-ydpi="263.56653"
       inkscape:export-filename="C:\Users\Paul\Téléchargements\text4880.png"><tspan
         sodipodi:role="line"
         id="tspan4529"
         x="1312.3737"
         y="2206.4263"
         style="font-style:normal;font-variant:normal;font-weight:bold;font-stretch:normal;font-family:arial;-inkscape-font-specification:'arial Bold';letter-spacing:-11.96999073px;fill:#ffffff">work as designed</tspan></text>
    <path
       id="path4533"
       d="m 1855.8947,1320.7419 -99.2125,37.2047 c -8.9195,3.3389 -14.8341,11.9246 -14.8341,21.4643 v 107.3688 c 0,8.6811 4.9129,16.599 12.64,20.4626 l 99.2125,49.6062 c 6.4393,3.2435 14.0233,3.2435 20.4625,0 l 99.2125,-49.6062 c 7.7748,-3.8636 12.64,-11.8292 12.64,-20.4626 v -107.3688 c 0,-9.5397 -5.9146,-18.0777 -14.8342,-21.4165 l -99.2124,-37.2047 c -5.1514,-2.0034 -10.8752,-2.0034 -16.0743,-0.048 z m 8.0611,29.6207 91.5805,34.3427 v 0.5248 l -91.5805,37.2047 -91.5808,-37.2047 v -0.5248 z m 15.2634,169.8059 v -71.0228 l 76.3171,-31.0038 v 63.868 z"
       inkscape:connector-curvature="0"
       style="fill:#ffffff;stroke-width:0.47698283"
       inkscape:export-xdpi="263.56653"
       inkscape:export-ydpi="263.56653"
       inkscape:export-filename="C:\Users\Paul\Téléchargements\text4880.png" />
    <text
       xml:space="preserve"
       style="font-style:normal;font-weight:normal;font-size:37.33333206px;line-height:1.25;font-family:sans-serif;letter-spacing:0px;word-spacing:0px;fill:#025384;fill-opacity:1;stroke:none"
       x="1492.1407"
       y="1540.0935"
       id="text4755"
       inkscape:export-xdpi="263.56653"
       inkscape:export-ydpi="263.56653"
       inkscape:export-filename="C:\Users\Paul\Téléchargements\text4880.png"><tspan
         sodipodi:role="line"
         id="tspan4753"
         x="1492.1407"
         y="1540.0935"
         style="font-style:normal;font-variant:normal;font-weight:900;font-stretch:normal;font-family:arial;-inkscape-font-specification:'arial Heavy';fill:#025384;fill-opacity:1">V<tspan
   style="font-style:normal;font-variant:normal;font-weight:900;font-stretch:normal;font-size:64.99999762%;font-family:arial;-inkscape-font-specification:'arial Heavy';baseline-shift:sub;fill:#025384;fill-opacity:1"
   id="tspan4757">+</tspan>R</tspan></text>
    <text
       xml:space="preserve"
       style="font-style:normal;font-weight:normal;font-size:37.33333206px;line-height:1.25;font-family:sans-serif;letter-spacing:0px;word-spacing:0px;fill:#025384;fill-opacity:1;stroke:none"
       x="1605.2186"
       y="1455.5204"
       id="text4755-3-1"
       inkscape:export-xdpi="263.56653"
       inkscape:export-ydpi="263.56653"
       inkscape:export-filename="C:\Users\Paul\Téléchargements\text4880.png"><tspan
         sodipodi:role="line"
         id="tspan4753-0-1"
         x="1605.2186"
         y="1455.5204"
         style="font-style:normal;font-variant:normal;font-weight:bold;font-stretch:normal;font-family:arial;-inkscape-font-specification:'arial Bold';fill:#025384;fill-opacity:1"><tspan
           style="font-style:normal;font-variant:normal;font-weight:900;font-stretch:normal;font-family:arial;-inkscape-font-specification:'arial Heavy'"
           id="tspan874">i</tspan><tspan
           style="font-style:italic;font-variant:normal;font-weight:bold;font-stretch:normal;font-size:64.99999762%;font-family:arial;-inkscape-font-specification:'arial Bold Italic';baseline-shift:super;fill:#025384;fill-opacity:1"
           id="tspan4798">i</tspan></tspan></text>
    <text
       xml:space="preserve"
       style="font-style:normal;font-weight:normal;font-size:37.33333206px;line-height:1.25;font-family:sans-serif;letter-spacing:0px;word-spacing:0px;fill:#025384;fill-opacity:1;stroke:none"
       x="1514.4956"
       y="1372.0267"
       id="text4755-0"
       inkscape:export-xdpi="263.56653"
       inkscape:export-ydpi="263.56653"
       inkscape:export-filename="C:\Users\Paul\Téléchargements\text4880.png"><tspan
         sodipodi:role="line"
         id="tspan4753-08"
         x="1514.4956"
         y="1372.0267"
         style="font-style:normal;font-variant:normal;font-weight:900;font-stretch:normal;font-family:arial;-inkscape-font-specification:'arial Heavy';fill:#025384;fill-opacity:1">Y</tspan></text>
    <path
       style="opacity:1;fill:#025384;fill-opacity:1;stroke:#ffffff;stroke-width:6.69799995;stroke-linecap:round;stroke-linejoin:round;stroke-miterlimit:4;stroke-dasharray:none;stroke-dashoffset:0;stroke-opacity:1"
       id="path4847"
       sodipodi:type="arc"
       sodipodi:cx="1526.5383"
       sodipodi:cy="1439.3807"
       sodipodi:rx="60"
       sodipodi:ry="60"
       sodipodi:start="3.2046689"
       sodipodi:end="3.1749633"
       sodipodi:open="true"
       d="m 1466.6576,1435.5987 a 60,60 0 0 1 63.218,-56.1251 60,60 0 0 1 56.593,62.7994 60,60 0 0 1 -62.3774,57.0578 60,60 0 0 1 -57.5195,-61.9519"
       inkscape:export-xdpi="263.56653"
       inkscape:export-ydpi="263.56653"
       inkscape:export-filename="C:\Users\Paul\Téléchargements\text4880.png" />
    <text
       xml:space="preserve"
       style="font-style:normal;font-weight:normal;font-size:37.33333206px;line-height:1.25;font-family:sans-serif;letter-spacing:0px;word-spacing:0px;fill:#025384;fill-opacity:1;stroke:none"
       x="1412.4779"
       y="1454.3389"
       id="text4755-3"
       inkscape:export-xdpi="263.56653"
       inkscape:export-ydpi="263.56653"
       inkscape:export-filename="C:\Users\Paul\Téléchargements\text4880.png"><tspan
         sodipodi:role="line"
         id="tspan4753-0"
         x="1412.4779"
         y="1454.3389"
         style="font-style:normal;font-variant:normal;font-weight:900;font-stretch:normal;font-family:arial;-inkscape-font-specification:'arial Heavy';fill:#025384;fill-opacity:1">3D</tspan></text>
    <path
       style="fill:#ffffff;fill-opacity:1;stroke:none;stroke-width:1.18333328px;stroke-linecap:butt;stroke-linejoin:miter;stroke-opacity:1"
       d="m 1503.405,1403.379 v 71 l 59.1667,-35.5 z"
       id="path4843"
       inkscape:connector-curvature="0"
       sodipodi:nodetypes="cccc"
       inkscape:export-xdpi="263.56653"
       inkscape:export-ydpi="263.56653"
       inkscape:export-filename="C:\Users\Paul\Téléchargements\text4880.png" />
    <path
       style="fill:#025384;fill-opacity:1;stroke:#025384;stroke-width:10;stroke-linecap:round;stroke-linejoin:round;stroke-miterlimit:4;stroke-dasharray:none;stroke-opacity:1"
       d="m 1580.5717,1383.379 20,-20"
       id="path4849"
       inkscape:connector-curvature="0"
       sodipodi:nodetypes="cc"
       inkscape:export-xdpi="263.56653"
       inkscape:export-ydpi="263.56653"
       inkscape:export-filename="C:\Users\Paul\Téléchargements\text4880.png" />
    <path
       style="fill:#025384;fill-opacity:1;stroke:#025384;stroke-width:10;stroke-linecap:round;stroke-linejoin:round;stroke-miterlimit:4;stroke-dasharray:none;stroke-opacity:1"
       d="m 1448.5717,1507.379 20,-20"
       id="path4849-0"
       inkscape:connector-curvature="0"
       sodipodi:nodetypes="cc"
       inkscape:export-xdpi="263.56653"
       inkscape:export-ydpi="263.56653"
       inkscape:export-filename="C:\Users\Paul\Téléchargements\text4880.png" />
    <path
       style="fill:#025384;fill-opacity:1;stroke:#025384;stroke-width:10;stroke-linecap:round;stroke-linejoin:round;stroke-miterlimit:4;stroke-dasharray:none;stroke-opacity:1"
       d="m 1452.5717,1367.379 20,20"
       id="path4849-01"
       inkscape:connector-curvature="0"
       sodipodi:nodetypes="cc"
       inkscape:export-xdpi="263.56653"
       inkscape:export-ydpi="263.56653"
       inkscape:export-filename="C:\Users\Paul\Téléchargements\text4880.png" />
    <path
       style="fill:#025384;fill-opacity:1;stroke:#025384;stroke-width:10;stroke-linecap:round;stroke-linejoin:round;stroke-miterlimit:4;stroke-dasharray:none;stroke-opacity:1"
       d="m 1584.5717,1489.379 20,20"
       id="path4849-2"
       inkscape:connector-curvature="0"
       sodipodi:nodetypes="cc"
       inkscape:export-xdpi="263.56653"
       inkscape:export-ydpi="263.56653"
       inkscape:export-filename="C:\Users\Paul\Téléchargements\text4880.png" />
    <text
       xml:space="preserve"
       style="font-style:normal;font-weight:normal;font-size:40px;line-height:1.25;font-family:sans-serif;letter-spacing:0px;word-spacing:0px;fill:#025384;fill-opacity:1;stroke:none"
       x="1521.4963"
       y="1339.2834"
       id="text4880"
       inkscape:export-xdpi="263.56653"
       inkscape:export-ydpi="263.56653"
       inkscape:export-filename="C:\Users\Paul\Téléchargements\text4880.png"><tspan
         sodipodi:role="line"
         id="tspan4878"
         x="1521.4963"
         y="1339.2834"
         style="font-style:normal;font-variant:normal;font-weight:bold;font-stretch:normal;font-family:sans-serif;-inkscape-font-specification:'sans-serif Bold'">.</tspan></text>
  </g>
</svg>
