<?xml version="1.0" encoding="UTF-8" standalone="no"?>
<!-- Created with Inkscape (http://www.inkscape.org/) -->

<svg
   xmlns:dc="http://purl.org/dc/elements/1.1/"
   xmlns:cc="http://creativecommons.org/ns#"
   xmlns:rdf="http://www.w3.org/1999/02/22-rdf-syntax-ns#"
   xmlns:svg="http://www.w3.org/2000/svg"
   xmlns="http://www.w3.org/2000/svg"
   xmlns:sodipodi="http://sodipodi.sourceforge.net/DTD/sodipodi-0.dtd"
   xmlns:inkscape="http://www.inkscape.org/namespaces/inkscape"
   version="1.1"
   id="svg4518"
   width="3150.9189"
   height="971.32489"
   viewBox="0 0 3150.9189 971.32489"
   sodipodi:docname="3DEXPERIENCE_work_as_designed_wallpaper.svg"
   inkscape:version="0.92.4 (5da689c313, 2019-01-14)"
   inkscape:export-filename="C:\Users\Paul\Téléchargements\image.png"
   inkscape:export-xdpi="128"
   inkscape:export-ydpi="128">
  <metadata
     id="metadata4524">
    <rdf:RDF>
      <cc:Work
         rdf:about="">
        <dc:format>image/svg+xml</dc:format>
        <dc:type
           rdf:resource="http://purl.org/dc/dcmitype/StillImage" />
        <dc:title></dc:title>
      </cc:Work>
    </rdf:RDF>
  </metadata>
  <defs
     id="defs4522" />
  <sodipodi:namedview
     pagecolor="#ffffff"
     bordercolor="#666666"
     borderopacity="1"
     objecttolerance="10"
     gridtolerance="10"
     guidetolerance="10"
     inkscape:pageopacity="0"
     inkscape:pageshadow="2"
     inkscape:window-width="1920"
     inkscape:window-height="1017"
     id="namedview4520"
     showgrid="true"
     inkscape:zoom="0.49187937"
     inkscape:cx="577.79923"
     inkscape:cy="587.08238"
     inkscape:window-x="-8"
     inkscape:window-y="-8"
     inkscape:window-maximized="1"
     inkscape:current-layer="layer1"
     showborder="true"
     borderlayer="false"
     inkscape:pagecheckerboard="false"
     inkscape:snap-page="true"
     fit-margin-top="0"
     fit-margin-left="0"
     fit-margin-right="0"
     fit-margin-bottom="0">
    <inkscape:grid
       type="xygrid"
       id="grid4751"
       originx="-1314.1315"
       originy="-1157.394" />
  </sodipodi:namedview>
  <g
     inkscape:groupmode="layer"
     id="layer1"
     inkscape:label="3DX"
     transform="translate(-1314.1315,-1319.2811)">
    <path
       id="path4544"
       d="m 2199.2792,1514.6338 c 53.8594,0 97.5,-43.6406 97.5,-97.5 0,-53.8594 -43.6406,-97.5 -97.5,-97.5 -53.8594,0 -97.5,43.6406 -97.5,97.5 0,53.8594 43.6406,97.5 97.5,97.5 z m -10.4063,-149.3437 v -7.875 c 0,-4.3125 3.4688,-7.7813 7.7813,-7.7813 h 5.2031 c 4.3125,0 7.7813,3.4688 7.7813,7.7813 v 7.9687 c 7.2656,0.375 14.2968,2.8594 20.1562,7.2188 2.625,1.9218 2.9063,5.7656 0.5625,8.0156 l -7.6406,7.2656 c -1.7813,1.7344 -4.4531,1.7813 -6.5625,0.4688 -2.5313,-1.5938 -5.3438,-2.3907 -8.3438,-2.3907 h -18.2343 c -4.2188,0 -7.6407,3.8438 -7.6407,8.5782 0,3.8437 2.3438,7.2656 5.6719,8.25 l 29.2031,8.7656 c 12.0469,3.6094 20.4844,15.1875 20.4844,28.1719 0,15.9375 -12.375,28.8281 -27.7031,29.25 v 7.875 c 0,4.3125 -3.4688,7.7812 -7.7813,7.7812 h -5.2031 c -4.3125,0 -7.7812,-3.4687 -7.7812,-7.7812 v -7.9688 c -7.2657,-0.375 -14.2969,-2.8594 -20.1563,-7.2187 -2.625,-1.9219 -2.9062,-5.7657 -0.5625,-8.0157 l 7.6406,-7.2656 c 1.7813,-1.7344 4.4532,-1.7812 6.5625,-0.4687 2.5313,1.5937 5.3438,2.3906 8.3438,2.3906 h 18.2344 c 4.2187,0 7.6406,-3.8438 7.6406,-8.5781 0,-3.8438 -2.3438,-7.2657 -5.6719,-8.25 l -29.2031,-8.7657 c -12.0469,-3.6093 -20.4844,-15.1875 -20.4844,-28.1718 0.047,-15.9375 12.375,-28.8282 27.7031,-29.25 z m 115.4063,119.3437 h -15.2344 c -9.1875,12.1875 -20.9062,22.3594 -34.2187,30 h 29.9062 c 2.4844,0 4.5,1.6875 4.5,3.75 v 7.5 c 0,2.0625 -2.0156,3.75 -4.5,3.75 h -170.9531 c -2.4844,0 -4.5,-1.6875 -4.5,-3.75 v -7.5 c 0,-2.0625 2.0156,-3.75 4.5,-3.75 h 29.9062 c -13.3125,-7.6406 -24.9843,-17.8125 -34.2187,-30 h -15.1875 c -8.2969,0 -15,6.7031 -15,15 v 45 c 0,8.2969 6.7031,15 15,15 h 210 c 8.2969,0 15,-6.7031 15,-15 v -45 c 0,-8.2969 -6.7031,-15 -15,-15 z"
       inkscape:connector-curvature="0"
       style="fill:#ffffff;stroke-width:0.46875"
       inkscape:export-xdpi="263.56653"
       inkscape:export-ydpi="263.56653"
       inkscape:export-filename="C:\Users\Paul\Téléchargements\text4880.png" />
    <path
       id="path4555"
       d="m 3939.2877,1348.7746 -1.2855,-1.3391 c -24.6394,-25.1751 -63.2055,-27.6926 -90.8445,-7.9275 l 18.3725,55.3851 -51.4214,34.2809 25.7107,68.5619 -77.1321,-77.1321 51.4214,-34.2809 -15.3193,-46.3328 c -27.6926,-20.2472 -66.6336,-17.8904 -91.4337,7.4989 l -1.2855,1.2856 c -26.0857,26.6748 -27.2105,69.151 -3.9102,97.5935 l 113.6092,117.0908 c 3.803,3.9101 9.9629,3.9101 13.7659,0 l 113.6627,-117.1444 c 23.3003,-28.3889 22.1755,-70.8651 -3.9102,-97.5399 z"
       inkscape:connector-curvature="0"
       style="fill:#ffffff;stroke-width:0.53563952"
       inkscape:export-xdpi="263.56653"
       inkscape:export-ydpi="263.56653"
       inkscape:export-filename="C:\Users\Paul\Téléchargements\text4880.png" />
    <path
       id="path4566"
       d="m 2886.006,1479.1337 h -27.0468 l 8.1093,-30.4219 c 0.9375,-3.5625 -1.7344,-7.0781 -5.4375,-7.0781 h -31.875 c -2.8125,0 -5.2031,2.1093 -5.5781,4.875 l -7.5,56.25 c -0.4688,3.375 2.1562,6.375 5.5781,6.375 h 27.7969 l -10.7813,45.5625 c -0.8438,3.5625 1.875,6.9375 5.4844,6.9375 1.9688,0 3.8437,-1.0312 4.875,-2.8125 l 41.25,-71.25 c 2.1563,-3.75 -0.5625,-8.4375 -4.875,-8.4375 z m 31.125,-52.1719 c 2.7656,-4.5 4.5,-9.6563 4.5,-15.3281 0,-16.5469 -13.4531,-30 -30,-30 h -2.7657 c 1.6875,-4.7344 2.7657,-9.7032 2.7657,-15 0,-24.8438 -20.1563,-45 -45,-45 -2.4375,0 -4.7813,0.3281 -7.0782,0.7031 4.4063,6.1407 7.0782,13.6406 7.0782,21.7969 0,20.7187 -16.7812,37.5 -37.5,37.5 h -7.5 c -16.5469,0 -30,13.4531 -30,30 0,5.6718 1.7343,10.8281 4.5,15.3281 -19.2187,1.5469 -34.5,17.5782 -34.5,37.1719 0,20.625 16.875,37.5 37.5,37.5 h 22.6407 c 0.046,-0.2812 0,-0.5625 0,-0.8437 l 7.4999,-56.25 c 1.4063,-10.2188 10.1719,-17.9063 20.4844,-17.9063 h 31.875 c 6.4687,0 12.4219,2.9531 16.3594,8.0625 3.9375,5.1093 5.2499,11.625 3.5625,17.8594 l -3.0938,11.5781 h 7.5001 c 7.3593,0 14.203,3.9375 17.8593,10.3125 3.6562,6.375 3.6562,14.2969 0,20.625 l -3.7968,6.5625 h 14.0624 c 20.6251,0 37.5001,-16.875 37.5001,-37.5 0.047,-19.5937 -15.2344,-35.625 -34.4532,-37.1719 z"
       inkscape:connector-curvature="0"
       style="fill:#ffffff;stroke-width:0.46875"
       inkscape:export-xdpi="263.56653"
       inkscape:export-ydpi="263.56653"
       inkscape:export-filename="C:\Users\Paul\Téléchargements\text4880.png" />
    <path
       id="path4577"
       d="m 3527.9511,1383.7658 c 16.5703,0 30,-13.4297 30,-30 0,-16.5703 -13.4297,-30 -30,-30 -16.5703,0 -30,13.4297 -30,30 0,16.5703 13.4297,30 30,30 z m -14.3578,79.5703 c 6.5906,7.8375 18.2812,8.9485 26.2359,2.4469 l 41.25,-33.7594 c 8.011,-6.5531 9.1828,-18.3703 2.6344,-26.3812 -6.5484,-8.0203 -18.3703,-9.1828 -26.3953,-2.6344 l -26.925,22.0312 -18.2391,-21.7078 c -7.2375,-8.6203 -18.3844,-13.0875 -30,-11.8734 -11.339,1.1625 -21.2109,7.6266 -26.4234,17.3062 l -23.1422,43.1391 c -10.9688,20.4563 -4.0734,45.1734 16.0266,58.0078 l 21.0046,16.3547 h -42.9187 c -10.3547,0 -18.75,8.3953 -18.75,18.75 0,10.3547 8.3953,18.75 18.75,18.75 h 97.5 c 15.975,0 25.2047,-20.0578 13.2562,-32.0062 l -51.4968,-51.4969 16.3125,-30.4078 z"
       inkscape:connector-curvature="0"
       style="fill:#ffffff;stroke-width:0.46875"
       inkscape:export-xdpi="263.56653"
       inkscape:export-ydpi="263.56653"
       inkscape:export-filename="C:\Users\Paul\Téléchargements\text4880.png" />
    <path
       id="path4588"
       d="m 3272.9086,1505.6562 h -46.1663 a 61.885714,61.885714 0 0 1 1.1657,12 c 0,25.6682 -18.7885,44.5714 -49.2857,44.5714 -24.2753,0 -30.5368,-26.002 -40.5573,-42.2057 -4.1437,-6.6498 -9.1039,-12.4913 -13.8487,-17.8141 l -0.07,-0.078 -0.069,-0.079 c -8.2066,-9.3622 -12.4377,-12.6798 -16.1684,-12.6798 h -1.4352 c -3.0787,2.6528 -7.2514,4.2857 -11.85,4.2857 h -34.2862 c -9.4677,0 -17.1429,-6.9075 -17.1429,-15.4286 v -123.4286 c 0,-8.521 7.6752,-15.4285 17.1429,-15.4285 h 34.2857 c 4.5985,0 8.7712,1.6328 11.85,4.2857 h 1.4351 c 15.3686,0 35.9663,-21.4286 68.1429,-21.4286 h 11.4102 c 33.5046,0 52.9286,20.7096 53.5393,48.8277 6.6868,9.5427 9.9059,21.8491 8.5634,33.638 a 49.900714,49.900714 0 0 1 4.2476,11.82 h 19.0972 c 24.3402,0 44.5714,20.1343 44.5714,44.5714 0,24.1602 -20.4112,44.5715 -44.5714,44.5715 z m 0,-63.4286 h -48.7639 c 6.8769,-7.8584 7.7223,-22.942 -2.6518,-32.7054 6.0144,-10.5246 0.9037,-24.4414 -6.9241,-28.7276 3.495,-20.9615 -5.3979,-32.8527 -27.1072,-32.8527 h -11.4102 c -24.3701,0 -41.3625,19.2391 -64.2857,21.255 v 94.6891 c 13.5209,1.5878 23.0175,11.3689 31.6473,21.2121 6.0402,6.7768 11.6384,13.5536 16.4995,21.3616 7.7577,12.5293 13.9993,30.0536 18.7104,30.0536 12.5223,0 23.5714,-4.7143 23.5714,-18.8571 0,-18.8572 -14.1429,-28.4331 -14.1429,-37.7143 h 84.8572 c 9.8705,0 18.8571,-8.8393 18.8571,-18.8572 0,-10.1651 -8.6919,-18.8571 -18.8571,-18.8571 z m -182.5714,-68.5714 c 0,-7.1009 -5.7563,-12.8572 -12.8572,-12.8572 -7.1009,0 -12.8571,5.7563 -12.8571,12.8572 0,7.1009 5.7562,12.8571 12.8571,12.8571 7.1009,0 12.8572,-5.7562 12.8572,-12.8571 z"
       inkscape:connector-curvature="0"
       style="fill:#ffffff;stroke-width:0.53571427"
       inkscape:export-xdpi="263.56653"
       inkscape:export-ydpi="263.56653"
       inkscape:export-filename="C:\Users\Paul\Téléchargements\text4880.png" />
    <path
       id="path4616"
       d="m 2648.6223,1455.3199 c -0.224,8.1703 -7.1329,14.5781 -15.3061,14.5781 h -25.9382 v 7.5 c 0,10.2487 -2.2885,19.9612 -6.375,28.6617 l 28.2318,28.2318 c 5.8575,5.858 5.8575,15.3553 0,21.2133 -5.8584,5.8579 -15.3557,5.8575 -21.2137,0 l -25.6575,-25.6575 c -11.6015,9.4092 -26.3836,15.0506 -42.4856,15.0506 V 1430.523 c 0,-3.1064 -2.5186,-5.625 -5.625,-5.625 h -11.25 c -3.1064,0 -5.625,2.5186 -5.625,5.625 v 114.3749 c -16.102,0 -30.884,-5.6414 -42.4856,-15.0506 l -25.6574,25.6575 c -5.8585,5.8579 -15.3558,5.8575 -21.2138,0 -5.8575,-5.858 -5.8575,-15.3553 0,-21.2133 l 28.2319,-28.2318 c -4.0866,-8.7005 -6.375,-18.413 -6.375,-28.6617 v -7.5 h -25.9378 c -8.1731,0 -15.082,-6.4078 -15.3061,-14.5781 -0.233,-8.4769 6.5695,-15.4219 14.9939,-15.4219 h 26.25 v -27.5367 l -21.8569,-21.8569 c -5.8575,-5.8579 -5.8575,-15.3553 0,-21.2132 5.8585,-5.858 15.3553,-5.858 21.2138,0 l 25.6064,25.6068 h 107.5728 l 25.6064,-25.6064 c 5.8585,-5.8579 15.3553,-5.8579 21.2138,0 5.8575,5.858 5.8575,15.3553 0,21.2133 l -21.8564,21.8564 v 27.5367 h 26.25 c 8.4243,0 15.2268,6.945 14.9943,15.4219 z m -119.5255,-135.4218 c -28.995,0 -52.5,23.505 -52.5,52.4999 h 104.9999 c 0,-28.9949 -23.5049,-52.4999 -52.4999,-52.4999 z"
       inkscape:connector-curvature="0"
       style="fill:#ffffff;stroke-width:0.46874964"
       inkscape:export-xdpi="263.56653"
       inkscape:export-ydpi="263.56653"
       inkscape:export-filename="C:\Users\Paul\Téléchargements\text4880.png" />
    <g
       id="g4697"
       transform="matrix(-0.63764832,0,0,0.63764832,4361.4533,1279.9077)"
       style="fill:#ffffff"
       inkscape:export-xdpi="263.56653"
       inkscape:export-ydpi="263.56653"
       inkscape:export-filename="C:\Users\Paul\Téléchargements\text4880.png">
      <g
         id="g4631"
         style="fill:#ffffff">
        <g
           id="g4629"
           style="fill:#ffffff">
          <path
             id="path4627"
             d="m 452.646,346.484 c -11.754,15.657 -26.718,29.049 -44.023,39.27 -22.569,13.332 -47.585,20.348 -72.479,20.348 -0.693,0 -1.387,-0.006 -2.079,-0.017 -31.463,-0.494 -61.939,-12.639 -85.013,-32.466 H 144.098 c -6.135,0 -11.65,-3.735 -13.928,-9.432 l -3.571,-8.933 c -0.091,-0.227 -0.176,-0.455 -0.256,-0.686 -10.245,-29.762 -13.757,-62.302 -10.156,-94.101 2.304,-20.345 7.503,-40.103 15.293,-58.445 -6.631,-8.933 -15.26,-16.288 -25.211,-21.432 l 23.962,-94.075 c 2.045,-8.027 -2.806,-16.193 -10.834,-18.238 -8.027,-2.046 -16.193,2.807 -18.238,10.834 L 81.67,155.624 64.111,96.219 C 61.763,88.275 53.421,83.738 45.475,86.085 37.529,88.432 32.994,96.777 35.342,104.721 L 55.961,174.49 C 23.909,182.152 0,211.021 0,245.388 c 0,16.967 13.804,30.771 30.771,30.771 h 6.01 v 35.827 c 0,72.898 59.308,132.206 132.206,132.206 H 497 c 8.284,0 15,-6.716 15,-15 v -4.963 c 0,-37.092 -25.189,-68.393 -59.354,-77.745 z"
             inkscape:connector-curvature="0"
             style="fill:#ffffff" />
        </g>
      </g>
      <g
         id="g4637"
         style="fill:#ffffff">
        <g
           id="g4635"
           style="fill:#ffffff">
          <path
             id="path4633"
             d="m 439.385,194.893 c -23.043,-47.611 -75.109,-80.226 -129.561,-81.157 -53.065,-0.916 -106.796,28.125 -136.857,73.965 -29.038,44.284 -36.148,103.912 -18.66,155.918 h 69.313 c -1.684,-2.818 -3.246,-5.709 -4.677,-8.665 -10.299,-21.265 -13.636,-46.31 -9.396,-70.52 4.338,-24.774 16.38,-47.011 33.906,-62.613 18.795,-16.729 43.324,-25.944 67.248,-25.264 25.883,0.73 50.323,12.993 65.378,32.803 13.848,18.224 18.639,41.389 12.816,61.967 -6.463,22.84 -26.668,40.617 -49.135,43.231 -15.725,1.825 -30.49,-4.023 -38.518,-15.281 -6.884,-9.652 -7.565,-23.966 -1.62,-34.034 5.069,-8.585 14.087,-13.012 24.087,-11.854 8.229,0.955 14.126,8.4 13.172,16.629 -0.38,3.27 -1.784,6.172 -3.855,8.421 -2.34,2.541 -0.286,6.708 3.148,6.334 0.039,-0.004 0.079,-0.009 0.118,-0.013 10.56,-1.229 20.542,-10.313 23.735,-21.601 3.223,-11.388 0.221,-25.047 -7.835,-35.647 -9.471,-12.463 -25.694,-20.496 -42.338,-20.966 -0.55,-0.016 -1.101,-0.023 -1.651,-0.023 -15.861,0 -32.102,6.399 -44.804,17.707 -25.792,22.961 -33.297,64.941 -17.457,97.649 15.416,31.835 51.019,53.619 88.593,54.21 40.554,0.596 81.608,-23.48 102.241,-60.014 20.35,-36.031 21.35,-82.466 2.609,-121.182 z"
             inkscape:connector-curvature="0"
             style="fill:#ffffff" />
        </g>
      </g>
      <g
         id="g4639"
         style="fill:#ffffff" />
      <g
         id="g4641"
         style="fill:#ffffff" />
      <g
         id="g4643"
         style="fill:#ffffff" />
      <g
         id="g4645"
         style="fill:#ffffff" />
      <g
         id="g4647"
         style="fill:#ffffff" />
      <g
         id="g4649"
         style="fill:#ffffff" />
      <g
         id="g4651"
         style="fill:#ffffff" />
      <g
         id="g4653"
         style="fill:#ffffff" />
      <g
         id="g4655"
         style="fill:#ffffff" />
      <g
         id="g4657"
         style="fill:#ffffff" />
      <g
         id="g4659"
         style="fill:#ffffff" />
      <g
         id="g4661"
         style="fill:#ffffff" />
      <g
         id="g4663"
         style="fill:#ffffff" />
      <g
         id="g4665"
         style="fill:#ffffff" />
      <g
         id="g4667"
         style="fill:#ffffff" />
    </g>
    <path
       style="opacity:1;fill:#ffffff;fill-opacity:1;stroke:none;stroke-width:21.87143135;stroke-linecap:round;stroke-linejoin:round;stroke-miterlimit:4;stroke-dasharray:none;stroke-dashoffset:0;stroke-opacity:1"
       d="M 212.63672,0.58203125 A 120,120 0 0 0 93.800781,113.01562 l -0.171875,3.5586 A 120,120 0 0 0 208.66797,240.47852 120,120 0 0 0 333.42383,126.36328 120,120 0 0 0 220.23828,0.765625 120,120 0 0 0 212.63672,0.58203125 Z M 210.93945,12.326172 h 7.30469 v 7.675781 h -7.30469 z m -10.53906,13.695312 h 9.16992 l 5.39453,9.023438 5.39649,-9.023438 h 9.11523 l -10.39062,15.53125 v 11.19336 h -8.27735 v -11.19336 z m 85.94141,13.027344 a 5.0005,5.0005 0 0 1 3.63476,8.583984 l -20,20 A 5.0005,5.0005 0 1 1 262.90625,60.5625 l 20,-20 a 5.0005,5.0005 0 0 1 3.43555,-1.513672 z m -147.95313,3.998047 a 5.0005,5.0005 0 0 1 3.58789,1.515625 l 20,20 a 5.0005,5.0005 0 1 1 -7.07031,7.070312 l -20,-20 a 5.0005,5.0005 0 0 1 3.48242,-8.585937 z m 73.55469,17.054687 a 60,60 0 0 1 3.80078,0.0918 60,60 0 0 1 56.59375,62.798828 60,60 0 0 1 -62.37891,57.05664 60,60 0 0 1 -57.51953,-61.95117 l 0.0859,-1.7793 a 60,60 0 0 1 59.41797,-56.216795 z m 96.20898,43.833988 h 3.40235 l -0.64063,3.08007 h -3.40039 z m -197.68359,3.94336 c 3.48785,0 6.0089,0.64888 7.56445,1.94921 1.55556,1.30035 2.33399,2.93555 2.33399,4.9043 0,1.15452 -0.31532,2.199 -0.94727,3.13477 -0.63194,0.93576 -1.58724,1.75609 -2.86328,2.46093 1.03299,0.25523 1.82422,0.55426 2.37109,0.89454 0.88716,0.54687 1.57249,1.26868 2.0586,2.16796 0.49826,0.88717 0.74805,1.95183 0.74805,3.19141 0,1.55556 -0.40647,3.05035 -1.22071,4.48438 -0.81423,1.42187 -1.98828,2.52105 -3.51953,3.29882 -1.53125,0.76563 -3.54188,1.14844 -6.0332,1.14844 -2.43056,0 -4.35005,-0.28624 -5.75977,-0.85742 -1.39757,-0.57118 -2.55338,-1.40234 -3.46484,-2.49609 -0.89931,-1.10591 -1.59202,-2.49132 -2.078127,-4.15625 l 7.419917,-0.98438 c 0.29167,1.49479 0.74198,2.53386 1.34961,3.11719 0.6198,0.57118 1.40365,0.85547 2.35157,0.85547 0.99652,0 1.82226,-0.36459 2.47851,-1.09375 0.66841,-0.72917 1.00196,-1.70074 1.00196,-2.91602 0,-1.23958 -0.32075,-2.2003 -0.96485,-2.88086 -0.63194,-0.68055 -1.49609,-1.01953 -2.58984,-1.01953 -0.58334,0 -1.38542,0.14583 -2.40625,0.4375 l 0.38281,-5.30469 c 0.4132,0.0608 0.73589,0.0898 0.9668,0.0898 0.97222,0 1.77973,-0.3099 2.42383,-0.92969 0.65625,-0.61979 0.98437,-1.35438 0.98437,-2.20508 0,-0.81423 -0.2424,-1.46506 -0.72852,-1.95117 -0.48609,-0.48611 -1.15516,-0.72852 -2.00585,-0.72852 -0.875,0 -1.58594,0.26802 -2.13282,0.80274 -0.54687,0.52257 -0.91686,1.44488 -1.11133,2.76953 l -7.01757,-1.25781 c 0.58333,-2.23611 1.70073,-3.94966 3.35351,-5.14063 1.66493,-1.19097 4.0165,-1.78515 7.05469,-1.78515 z m 15.6582,0.45507 h 12.26953 c 2.41841,0 4.36893,0.32813 5.85157,0.98438 1.49479,0.65625 2.72699,1.59874 3.69922,2.82617 0.97222,1.22743 1.67773,2.65473 2.11523,4.2832 0.4375,1.62848 0.65625,3.35482 0.65625,5.17774 0,2.8559 -0.32813,5.07248 -0.98437,6.65234 -0.6441,1.56771 -1.54276,2.88759 -2.69727,3.95703 -1.15451,1.0573 -2.3941,1.76085 -3.71875,2.11328 -1.81076,0.48612 -3.45139,0.73047 -4.92188,0.73047 h -12.26953 z m 181.03125,0.38868 h 3.40039 l -2.63086,12.58398 h -3.40039 z m -13.55468,0.79296 h 7.41796 v 5.04883 h -7.41796 z m -159.21875,4.8711 v 14.60156 h 2.02343 c 1.7257,0 2.95443,-0.18967 3.6836,-0.5664 0.72916,-0.38889 1.29969,-1.05599 1.71289,-2.00391 0.41319,-0.96007 0.61914,-2.50955 0.61914,-4.64844 0,-2.8316 -0.46116,-4.77125 -1.38477,-5.81641 -0.92361,-1.04513 -2.45486,-1.5664 -4.59375,-1.5664 z m 159.21875,2.49414 h 7.41796 v 19.35937 h -7.41796 z M 154.3418,163.04883 a 5.0005,5.0005 0 0 1 3.63476,8.58398 l -20,20 a 5.0005,5.0005 0 1 1 -7.07031,-7.07031 l 20,-20 a 5.0005,5.0005 0 0 1 3.43555,-1.51367 z m 116.04687,1.99805 a 5.0005,5.0005 0 0 1 3.58789,1.51562 l 20,20 a 5.0005,5.0005 0 1 1 -7.07031,7.07031 l -20,-20 a 5.0005,5.0005 0 0 1 3.48242,-8.58593 z m -92.28906,29.04101 h 8.64062 l 6.01563,19.23242 5.92578,-19.23242 h 8.38477 l -9.91602,26.72461 h -8.95117 z m 47.79492,0 h 13.76172 c 2.55208,0 4.5026,0.21875 5.85156,0.65625 1.34896,0.4375 2.43729,1.25239 3.26367,2.44336 0.82639,1.17882 1.24024,2.61892 1.24024,4.32031 0,1.48264 -0.31728,2.76411 -0.94922,3.84571 -0.63194,1.06944 -1.49957,1.93901 -2.60547,2.60742 -0.70486,0.42534 -1.67101,0.77712 -2.89844,1.05664 0.98438,0.32812 1.70074,0.65625 2.15039,0.98437 0.30382,0.21875 0.74132,0.68729 1.3125,1.4043 0.58334,0.71701 0.97158,1.26931 1.16602,1.6582 l 3.99219,7.74805 h -9.33203 l -4.41211,-8.16602 c -0.55903,-1.05729 -1.05664,-1.74457 -1.49414,-2.06054 -0.59549,-0.4132 -1.26997,-0.61914 -2.02344,-0.61914 h -0.73047 v 10.8457 h -8.29297 z m 8.29297,5.39649 v 5.43164 h 3.48242 c 0.37674,0 1.1059,-0.12023 2.1875,-0.36329 0.54688,-0.10937 0.9898,-0.39019 1.33008,-0.83984 0.35243,-0.44965 0.5293,-0.96549 0.5293,-1.54883 0,-0.86284 -0.27344,-1.52452 -0.82032,-1.98633 -0.54687,-0.4618 -1.57313,-0.69335 -3.08007,-0.69335 z M 213.07227,213.125 h 3.82812 v 4.56055 h 4.5625 v 3.83984 h -4.5625 v 4.53711 h -3.82812 v -4.53711 h -4.53711 v -3.83984 h 4.53711 z"
       transform="translate(1314.1315,1319.2811)"
       id="path4712"
       inkscape:connector-curvature="0" />
    <g
       aria-label="work as designed"
       style="font-style:normal;font-weight:normal;font-size:400px;line-height:1.25;font-family:sans-serif;letter-spacing:-11.96999073px;word-spacing:0px;fill:#ffffff;fill-opacity:1;stroke:none"
       id="text4531">
      <path
         d="m 1379.7565,2206.4263 -65.625,-207.4219 h 53.3203 l 38.8672,135.9375 35.7422,-135.9375 h 52.9296 l 34.5704,135.9375 39.6484,-135.9375 h 54.1016 l -66.6016,207.4219 h -52.7344 l -35.7422,-133.3985 -35.1562,133.3985 z"
         style="font-style:normal;font-variant:normal;font-weight:bold;font-stretch:normal;font-family:arial;-inkscape-font-specification:'arial Bold';letter-spacing:-11.96999073px;fill:#ffffff"
         id="path995" />
      <path
         d="m 1627.3568,2099.7856 q 0,-27.3437 13.4765,-52.9296 13.4766,-25.586 38.086,-39.0625 24.8047,-13.4766 55.2734,-13.4766 47.0703,0 77.1485,30.6641 30.0781,30.4687 30.0781,77.1484 0,47.0703 -30.4688,78.125 -30.2734,30.8594 -76.3672,30.8594 -28.5156,0 -54.4921,-12.8907 -25.7813,-12.8906 -39.2579,-37.6953 -13.4765,-25 -13.4765,-60.7422 z m 56.25,2.9297 q 0,30.8594 14.6484,47.2657 14.6485,16.4062 36.1328,16.4062 21.4844,0 35.9375,-16.4062 14.6485,-16.4063 14.6485,-47.6563 0,-30.4687 -14.6485,-46.875 -14.4531,-16.4062 -35.9375,-16.4062 -21.4843,0 -36.1328,16.4062 -14.6484,16.4063 -14.6484,47.2656 z"
         style="font-style:normal;font-variant:normal;font-weight:bold;font-stretch:normal;font-family:arial;-inkscape-font-specification:'arial Bold';letter-spacing:-11.96999073px;fill:#ffffff"
         id="path997" />
      <path
         d="m 1925.1524,2206.4263 h -54.8828 v -207.4219 h 50.9766 v 29.4922 q 13.0859,-20.8985 23.4375,-27.5391 10.5468,-6.6406 23.8281,-6.6406 18.75,0 36.1328,10.3516 l -16.9922,47.8515 q -13.8672,-8.9844 -25.7812,-8.9844 -11.5235,0 -19.5313,6.4454 -8.0078,6.25 -12.6953,22.8515 -4.4922,16.6016 -4.4922,69.5313 z"
         style="font-style:normal;font-variant:normal;font-weight:bold;font-stretch:normal;font-family:arial;-inkscape-font-specification:'arial Bold';letter-spacing:-11.96999073px;fill:#ffffff"
         id="path999" />
      <path
         d="m 2014.159,2206.4263 v -286.3282 h 54.8828 v 151.9532 l 64.2578,-73.0469 h 67.5781 l -70.8984,75.7812 75.9766,131.6407 h -59.1797 l -52.1485,-93.1641 -25.5859,26.7578 v 66.4063 z"
         style="font-style:normal;font-variant:normal;font-weight:bold;font-stretch:normal;font-family:arial;-inkscape-font-specification:'arial Bold';letter-spacing:-11.96999073px;fill:#ffffff"
         id="path1001" />
      <path
         d="m 2366.7815,2062.2856 -49.8047,-8.9843 q 8.3984,-30.0782 28.9063,-44.5313 20.5078,-14.4531 60.9375,-14.4531 36.7187,0 54.6875,8.7891 17.9687,8.5937 25.1953,22.0703 7.4218,13.2812 7.4218,49.0234 l -0.5859,64.0625 q 0,27.3438 2.5391,40.4297 2.7343,12.8906 9.9609,27.7344 h -54.2969 q -2.1484,-5.4688 -5.2734,-16.211 -1.3672,-4.8828 -1.9531,-6.4453 -14.0625,13.6719 -30.0782,20.5078 -16.0156,6.836 -34.1796,6.836 -32.0313,0 -50.586,-17.3828 -18.3594,-17.3829 -18.3594,-43.9454 0,-17.5781 8.3985,-31.25 8.3984,-13.8671 23.4375,-21.0937 15.2344,-7.4219 43.75,-12.8906 38.4765,-7.2266 53.3203,-13.4766 v -5.4687 q 0,-15.8204 -7.8125,-22.461 -7.8125,-6.8359 -29.4922,-6.8359 -14.6484,0 -22.8516,5.8594 -8.2031,5.664 -13.2812,20.1171 z m 73.4375,44.5313 q -10.5469,3.5156 -33.3984,8.3984 -22.8516,4.8828 -29.8829,9.5703 -10.7421,7.6172 -10.7421,19.336 0,11.5234 8.5937,19.9219 8.5938,8.3984 21.875,8.3984 14.8438,0 28.3203,-9.7656 9.961,-7.4219 13.086,-18.1641 2.1484,-7.0312 2.1484,-26.7578 z"
         style="font-style:normal;font-variant:normal;font-weight:bold;font-stretch:normal;font-family:arial;-inkscape-font-specification:'arial Bold';letter-spacing:-11.96999073px;fill:#ffffff"
         id="path1003" />
      <path
         d="m 2517.1162,2147.2466 55.0781,-8.3985 q 3.5157,16.0157 14.2578,24.4141 10.7422,8.2031 30.0782,8.2031 21.289,0 32.0312,-7.8125 7.2266,-5.4687 7.2266,-14.6484 0,-6.25 -3.9063,-10.3516 -4.1015,-3.9062 -18.3593,-7.2265 -66.4063,-14.6485 -84.1797,-26.7578 -24.6094,-16.7969 -24.6094,-46.6797 0,-26.9532 21.2891,-45.3125 21.289,-18.3594 66.0156,-18.3594 42.5781,0 63.2812,13.8672 20.7032,13.8672 28.5157,41.0156 l -51.7579,9.5703 q -3.3203,-12.1094 -12.6953,-18.5547 -9.1797,-6.4453 -26.3672,-6.4453 -21.6796,0 -31.0546,6.0547 -6.25,4.2969 -6.25,11.1328 0,5.8594 5.4687,9.961 7.4219,5.4687 51.1719,15.4296 43.9453,9.961 61.3281,24.4141 17.1875,14.6484 17.1875,40.8203 0,28.5156 -23.8281,49.0235 -23.8281,20.5078 -70.5078,20.5078 -42.3828,0 -67.1875,-17.1875 -24.6094,-17.1875 -32.2266,-46.6797 z"
         style="font-style:normal;font-variant:normal;font-weight:bold;font-stretch:normal;font-family:arial;-inkscape-font-specification:'arial Bold';letter-spacing:-11.96999073px;fill:#ffffff"
         id="path1005" />
      <path
         d="m 3036.3403,2206.4263 h -50.9765 v -30.4688 q -12.6953,17.7735 -30.0782,26.5625 -17.1875,8.5938 -34.7656,8.5938 -35.7422,0 -61.3281,-28.711 -25.3906,-28.9062 -25.3906,-80.4687 0,-52.7344 24.8047,-80.0781 24.8046,-27.5391 62.6953,-27.5391 34.7656,0 60.1562,28.9062 v -103.125 h 54.8828 z M 2889.856,2098.2231 q 0,33.2032 9.1796,48.0469 13.2813,21.4844 37.1094,21.4844 18.9453,0 32.2266,-16.0156 13.2812,-16.211 13.2812,-48.2422 0,-35.7422 -12.8906,-51.3672 -12.8906,-15.8203 -33.0078,-15.8203 -19.5313,0 -32.8125,15.625 -13.0859,15.4297 -13.0859,46.289 z"
         style="font-style:normal;font-variant:normal;font-weight:bold;font-stretch:normal;font-family:arial;-inkscape-font-specification:'arial Bold';letter-spacing:-11.96999073px;fill:#ffffff"
         id="path1007" />
      <path
         d="m 3198.7844,2140.4106 54.6875,9.1797 q -10.5469,30.0782 -33.3984,45.8985 -22.6563,15.625 -56.836,15.625 -54.1015,0 -80.0781,-35.3516 -20.5078,-28.3203 -20.5078,-71.4844 0,-51.5625 26.9531,-80.664 26.9532,-29.2969 68.1641,-29.2969 46.2891,0 73.0469,30.6641 26.7578,30.4687 25.5859,93.5546 h -137.5 q 0.5859,24.4141 13.2813,38.086 12.6953,13.4765 31.6406,13.4765 12.8906,0 21.6797,-7.0312 8.789,-7.0313 13.2812,-22.6563 z m 3.125,-55.4687 q -0.5859,-23.8281 -12.3047,-36.1328 -11.7187,-12.5 -28.5156,-12.5 -17.9687,0 -29.6875,13.0859 -11.7187,13.086 -11.5234,35.5469 z"
         style="font-style:normal;font-variant:normal;font-weight:bold;font-stretch:normal;font-family:arial;-inkscape-font-specification:'arial Bold';letter-spacing:-11.96999073px;fill:#ffffff"
         id="path1009" />
      <path
         d="m 3270.0175,2147.2466 55.0781,-8.3985 q 3.5156,16.0157 14.2578,24.4141 10.7422,8.2031 30.0781,8.2031 21.2891,0 32.0313,-7.8125 7.2265,-5.4687 7.2265,-14.6484 0,-6.25 -3.9062,-10.3516 -4.1016,-3.9062 -18.3594,-7.2265 -66.4062,-14.6485 -84.1797,-26.7578 -24.6094,-16.7969 -24.6094,-46.6797 0,-26.9532 21.2891,-45.3125 21.2891,-18.3594 66.0156,-18.3594 42.5782,0 63.2813,13.8672 20.7031,13.8672 28.5156,41.0156 l -51.7578,9.5703 q -3.3203,-12.1094 -12.6953,-18.5547 -9.1797,-6.4453 -26.3672,-6.4453 -21.6797,0 -31.0547,6.0547 -6.25,4.2969 -6.25,11.1328 0,5.8594 5.4688,9.961 7.4218,5.4687 51.1718,15.4296 43.9453,9.961 61.3282,24.4141 17.1875,14.6484 17.1875,40.8203 0,28.5156 -23.8282,49.0235 -23.8281,20.5078 -70.5078,20.5078 -42.3828,0 -67.1875,-17.1875 -24.6094,-17.1875 -32.2265,-46.6797 z"
         style="font-style:normal;font-variant:normal;font-weight:bold;font-stretch:normal;font-family:arial;-inkscape-font-specification:'arial Bold';letter-spacing:-11.96999073px;fill:#ffffff"
         id="path1011" />
      <path
         d="m 3500.0397,1970.8794 v -50.7813 h 54.8828 v 50.7813 z m 0,235.5469 v -207.4219 h 54.8828 v 207.4219 z"
         style="font-style:normal;font-variant:normal;font-weight:bold;font-stretch:normal;font-family:arial;-inkscape-font-specification:'arial Bold';letter-spacing:-11.96999073px;fill:#ffffff"
         id="path1013" />
      <path
         d="m 3593.9291,2220.0981 62.6953,7.6172 q 1.5625,10.9375 7.2266,15.0391 7.8125,5.8594 24.6093,5.8594 21.4844,0 32.2266,-6.4453 7.2266,-4.2969 10.9375,-13.8672 2.5391,-6.836 2.5391,-25.1953 v -30.2735 q -24.6094,33.5938 -62.1094,33.5938 -41.7969,0 -66.211,-35.3516 -19.1406,-27.9297 -19.1406,-69.5312 0,-52.1485 25,-79.6875 25.1953,-27.5391 62.5,-27.5391 38.4766,0 63.4766,33.7891 v -29.1016 h 51.3672 v 186.1328 q 0,36.7188 -6.0547,54.8828 -6.0547,18.1641 -16.9922,28.5156 -10.9375,10.3516 -29.2969,16.211 -18.164,5.8594 -46.0937,5.8594 -52.7344,0 -74.8047,-18.1641 -22.0703,-17.9688 -22.0703,-45.7031 0,-2.7344 0.1953,-6.6407 z m 49.0234,-121.6796 q 0,33.0078 12.6953,48.4375 12.8907,15.2343 31.6407,15.2343 20.1171,0 33.9843,-15.625 13.8672,-15.8203 13.8672,-46.6797 0,-32.2265 -13.2812,-47.8515 -13.2813,-15.625 -33.5938,-15.625 -19.7265,0 -32.6172,15.4297 -12.6953,15.2343 -12.6953,46.6797 z"
         style="font-style:normal;font-variant:normal;font-weight:bold;font-stretch:normal;font-family:arial;-inkscape-font-specification:'arial Bold';letter-spacing:-11.96999073px;fill:#ffffff"
         id="path1015" />
      <path
         d="m 4020.2404,2206.4263 h -54.8829 v -105.8594 q 0,-33.5938 -3.5156,-43.3594 -3.5156,-9.9609 -11.5234,-15.4297 -7.8125,-5.4687 -18.9453,-5.4687 -14.2578,0 -25.586,7.8125 -11.3281,7.8125 -15.625,20.7031 -4.1015,12.8906 -4.1015,47.6563 v 93.9453 h -54.8828 v -207.4219 h 50.9765 v 30.4687 q 27.1485,-35.1562 68.3594,-35.1562 18.1641,0 33.2031,6.6406 15.0391,6.4453 22.6563,16.6016 7.8125,10.1562 10.7422,23.0469 3.125,12.8906 3.125,36.914 z"
         style="font-style:normal;font-variant:normal;font-weight:bold;font-stretch:normal;font-family:arial;-inkscape-font-specification:'arial Bold';letter-spacing:-11.96999073px;fill:#ffffff"
         id="path1017" />
      <path
         d="m 4184.2469,2140.4106 54.6875,9.1797 q -10.5468,30.0782 -33.3984,45.8985 -22.6562,15.625 -56.8359,15.625 -54.1016,0 -80.0782,-35.3516 -20.5078,-28.3203 -20.5078,-71.4844 0,-51.5625 26.9532,-80.664 26.9531,-29.2969 68.164,-29.2969 46.2891,0 73.0469,30.6641 26.7578,30.4687 25.5859,93.5546 h -137.5 q 0.586,24.4141 13.2813,38.086 12.6953,13.4765 31.6406,13.4765 12.8906,0 21.6797,-7.0312 8.7891,-7.0313 13.2812,-22.6563 z m 3.125,-55.4687 q -0.5859,-23.8281 -12.3046,-36.1328 -11.7188,-12.5 -28.5157,-12.5 -17.9687,0 -29.6875,13.0859 -11.7187,13.086 -11.5234,35.5469 z"
         style="font-style:normal;font-variant:normal;font-weight:bold;font-stretch:normal;font-family:arial;-inkscape-font-specification:'arial Bold';letter-spacing:-11.96999073px;fill:#ffffff"
         id="path1019" />
      <path
         d="m 4465.0504,2206.4263 h -50.9765 v -30.4688 q -12.6954,17.7735 -30.0782,26.5625 -17.1875,8.5938 -34.7656,8.5938 -35.7422,0 -61.3281,-28.711 -25.3906,-28.9062 -25.3906,-80.4687 0,-52.7344 24.8046,-80.0781 24.8047,-27.5391 62.6954,-27.5391 34.7656,0 60.1562,28.9062 v -103.125 h 54.8828 z M 4318.566,2098.2231 q 0,33.2032 9.1797,48.0469 13.2813,21.4844 37.1094,21.4844 18.9453,0 32.2266,-16.0156 13.2812,-16.211 13.2812,-48.2422 0,-35.7422 -12.8906,-51.3672 -12.8906,-15.8203 -33.0078,-15.8203 -19.5313,0 -32.8125,15.625 -13.086,15.4297 -13.086,46.289 z"
         style="font-style:normal;font-variant:normal;font-weight:bold;font-stretch:normal;font-family:arial;-inkscape-font-specification:'arial Bold';letter-spacing:-11.96999073px;fill:#ffffff"
         id="path1021" />
    </g>
    <path
       id="path4533"
       d="m 1855.8947,1320.7419 -99.2125,37.2047 c -8.9195,3.3389 -14.8341,11.9246 -14.8341,21.4643 v 107.3688 c 0,8.6811 4.9129,16.599 12.64,20.4626 l 99.2125,49.6062 c 6.4393,3.2435 14.0233,3.2435 20.4625,0 l 99.2125,-49.6062 c 7.7748,-3.8636 12.64,-11.8292 12.64,-20.4626 v -107.3688 c 0,-9.5397 -5.9146,-18.0777 -14.8342,-21.4165 l -99.2124,-37.2047 c -5.1514,-2.0034 -10.8752,-2.0034 -16.0743,-0.048 z m 8.0611,29.6207 91.5805,34.3427 v 0.5248 l -91.5805,37.2047 -91.5808,-37.2047 v -0.5248 z m 15.2634,169.8059 v -71.0228 l 76.3171,-31.0038 v 63.868 z"
       inkscape:connector-curvature="0"
       style="fill:#ffffff;stroke-width:0.47698283"
       inkscape:export-xdpi="263.56653"
       inkscape:export-ydpi="263.56653"
       inkscape:export-filename="C:\Users\Paul\Téléchargements\text4880.png" />
    <path
       style="fill:#ffffff;fill-opacity:1;stroke:none;stroke-width:1.18333328px;stroke-linecap:butt;stroke-linejoin:miter;stroke-opacity:1"
       d="m 1503.405,1403.379 v 71 l 59.1667,-35.5 z"
       id="path4843"
       inkscape:connector-curvature="0"
       sodipodi:nodetypes="cccc"
       inkscape:export-xdpi="263.56653"
       inkscape:export-ydpi="263.56653"
       inkscape:export-filename="C:\Users\Paul\Téléchargements\text4880.png" />
  </g>
</svg>
